<svg width="243" height="243" xmlns="http://www.w3.org/2000/svg" xmlns:xlink="http://www.w3.org/1999/xlink" xml:space="preserve" overflow="hidden"><g transform="translate(-81 -276)"><path d="M137.194 447.112C135.675 448.631 133.65 449.897 131.625 450.656L131.625 486.094C131.625 490.397 134.916 493.688 139.219 493.688 143.522 493.688 146.812 490.397 146.812 486.094L146.812 445.088C150.609 447.112 155.419 447.112 158.962 443.569L165.038 437.494C160.228 436.987 155.419 435.722 150.609 433.697L137.194 447.112Z"/><path d="M301.725 347.381 272.869 318.525C270.844 316.5 268.312 315.234 265.781 314.475L265.781 305.109C265.781 304.35 265.275 303.844 264.516 303.844 259.706 303.844 255.656 307.894 255.656 312.703L255.656 314.981C237.431 322.069 220.219 364.594 192.375 364.594L151.875 364.594C145.547 364.594 139.978 366.366 135.169 369.656L121.5 369.656C110.363 369.656 101.25 378.769 101.25 389.906L101.25 420.281 121.5 411.169 121.5 430.406C121.5 426.103 118.209 422.812 113.906 422.812 109.603 422.812 106.312 426.103 106.312 430.406L106.312 486.094C106.312 490.397 109.603 493.688 113.906 493.688L113.906 493.688C118.209 493.688 121.5 490.397 121.5 486.094L121.5 445.088C125.297 447.112 130.106 447.112 133.65 443.569L149.597 427.622C156.431 430.913 164.025 432.938 172.125 432.938L205.031 432.938 205.031 486.094C205.031 490.397 208.322 493.688 212.625 493.688 216.928 493.688 220.219 490.397 220.219 486.094L220.219 432.938C223.762 432.938 227.053 432.178 230.344 431.166L230.344 486.094C230.344 490.397 233.634 493.688 237.938 493.688 242.241 493.688 245.531 490.397 245.531 486.094L245.531 419.269C248.822 414.459 250.594 408.638 250.594 402.562L250.594 407.625C250.594 378.263 257.428 354.469 265.781 354.469L268.819 357.506C271.603 360.291 275.653 362.062 279.45 362.062L286.031 362.062 286.537 362.569C290.588 366.619 296.916 366.619 300.966 362.569L301.725 361.809C305.522 357.759 305.522 351.178 301.725 347.381Z"/></g></svg>