<svg width="244" height="244" xmlns="http://www.w3.org/2000/svg" xmlns:xlink="http://www.w3.org/1999/xlink" xml:space="preserve" overflow="hidden"><g transform="translate(-686 -285)"><path d="M843.329 443.6C863.154 424.538 864.171 393.021 845.362 372.688 865.442 383.108 881.963 399.121 891.621 409.796 881.454 419.708 864.171 434.45 843.329 443.6ZM743.442 391.242C751.829 384.125 760.725 378.025 770.383 372.942 751.829 393.275 752.846 424.538 772.671 443.6 751.829 434.45 734.292 419.708 724.379 409.796 730.225 403.188 736.579 397.087 743.442 391.242L743.442 391.242ZM808 447.667C785.633 447.667 767.333 429.367 767.333 407 767.333 384.633 785.633 366.333 808 366.333 830.367 366.333 848.667 384.633 848.667 407 848.667 429.367 830.367 447.667 808 447.667ZM906.871 402.679C892.129 385.396 853.496 346 808 346 762.504 346 723.871 385.396 709.129 402.679 705.317 407.254 705.571 413.608 709.638 417.929 724.633 433.688 763.013 468 808 468 852.987 468 891.367 433.688 906.617 417.929 910.429 413.862 910.683 407.254 906.871 402.679Z"/><path d="M833.417 407C833.417 421.037 822.037 432.417 808 432.417 793.963 432.417 782.583 421.037 782.583 407 782.583 392.963 793.963 381.583 808 381.583 822.037 381.583 833.417 392.963 833.417 407Z"/></g></svg>